<svg width="30" height="29" viewBox="0 0 30 29" fill="none" xmlns="http://www.w3.org/2000/svg">
<g clip-path="url(#clip0_1083_219)">
<path d="M24.0835 15.3288L24.6943 14.1078H18.1777C17.8657 14.1078 17.5921 14.2704 17.4355 14.5152C17.4025 14.5668 17.3749 14.6214 17.3533 14.6796L10.5835 28.2102C10.5835 28.2102 17.4277 28.2078 17.0965 28.2078C17.4277 28.2078 17.7157 28.0254 17.8663 27.7554L17.8975 27.693L24.0331 15.429L24.0835 15.3282V15.3288Z" fill="#00A969"/>
<path d="M20.556 1.221L21.1668 0H14.6502C14.3382 0 14.0646 0.1626 13.908 0.4074C13.875 0.459 13.8474 0.5136 13.8258 0.5718C9.2166 9.7842 4.6086 18.9972 0 28.2102C0 28.2102 6.8442 28.2078 6.513 28.2078C6.8442 28.2078 7.1322 28.0248 7.2828 27.7548L7.314 27.6924C11.7114 18.9024 16.1082 10.1118 20.5056 1.3212L20.556 1.2204V1.221Z" fill="#00A969"/>
<path d="M29.1179 21.159H23.8307C23.3435 21.159 22.9487 21.5538 22.9487 22.041V27.3342C22.9487 27.7878 23.2913 28.161 23.7317 28.2102C23.7641 28.2138 23.7971 28.2162 23.8307 28.2162C23.8643 28.2162 23.8973 28.2138 23.9297 28.2102H29.0195C29.0519 28.2138 29.0849 28.2162 29.1185 28.2162C29.1521 28.2162 29.1851 28.2138 29.2175 28.2102C29.6579 28.161 30.0005 27.7878 30.0005 27.3342V22.041C30.0005 21.5538 29.6057 21.159 29.1185 21.159H29.1179Z" fill="#00A969"/>
</g>
<defs>
<clipPath id="clip0_1083_219">
<rect width="30" height="28.2162" fill="white"/>
</clipPath>
</defs>
</svg>
